<svg width="468" height="236" viewBox="0 0 468 236" fill="none" xmlns="http://www.w3.org/2000/svg">
<g clip-path="url(#clip0_703_239)">
<path d="M209.373 118.544C206.228 118.544 203.506 117.864 201.208 116.503C198.94 115.112 197.186 113.192 195.946 110.742C194.706 108.263 194.087 105.405 194.087 102.169C194.087 98.9034 194.706 96.0458 195.946 93.5963C197.186 91.1166 198.94 89.1813 201.208 87.7902C203.506 86.3992 206.228 85.7037 209.373 85.7037C213.092 85.7037 216.132 86.6109 218.49 88.4253C220.849 90.2397 222.346 92.7798 222.981 96.0458H217.628C217.205 94.2011 216.298 92.7345 214.907 91.6458C213.516 90.5572 211.656 90.0129 209.328 90.0129C206.152 90.0129 203.642 91.1015 201.798 93.2788C199.953 95.4258 199.031 98.3894 199.031 102.169C199.031 105.919 199.953 108.868 201.798 111.015C203.642 113.162 206.152 114.235 209.328 114.235C211.656 114.235 213.516 113.721 214.907 112.693C216.298 111.665 217.205 110.259 217.628 108.474H222.981C222.346 111.619 220.849 114.084 218.49 115.868C216.132 117.652 213.092 118.544 209.373 118.544ZM228.085 118V85.3408H232.893V118H228.085ZM249.505 118.544C247.358 118.544 245.423 118.06 243.699 117.093C242.006 116.095 240.66 114.719 239.662 112.965C238.664 111.181 238.165 109.109 238.165 106.751C238.165 104.392 238.664 102.336 239.662 100.582C240.69 98.7976 242.066 97.4217 243.79 96.454C245.513 95.4561 247.434 94.9571 249.55 94.9571C251.698 94.9571 253.618 95.4561 255.311 96.454C257.035 97.4217 258.396 98.7976 259.394 100.582C260.422 102.336 260.936 104.392 260.936 106.751C260.936 109.109 260.422 111.181 259.394 112.965C258.396 114.719 257.035 116.095 255.311 117.093C253.588 118.06 251.652 118.544 249.505 118.544ZM249.505 114.417C250.654 114.417 251.713 114.129 252.68 113.555C253.678 112.98 254.48 112.133 255.084 111.015C255.689 109.865 255.992 108.444 255.992 106.751C255.992 105.057 255.689 103.651 255.084 102.532C254.51 101.383 253.724 100.521 252.726 99.9467C251.758 99.3722 250.7 99.0849 249.55 99.0849C248.401 99.0849 247.328 99.3722 246.33 99.9467C245.362 100.521 244.576 101.383 243.971 102.532C243.366 103.651 243.064 105.057 243.064 106.751C243.064 108.444 243.366 109.865 243.971 111.015C244.576 112.133 245.362 112.98 246.33 113.555C247.298 114.129 248.356 114.417 249.505 114.417ZM274.436 118.544C271.715 118.544 269.568 117.698 267.995 116.004C266.453 114.311 265.682 111.786 265.682 108.429V95.5014H270.49V107.93C270.49 112.285 272.274 114.462 275.843 114.462C277.627 114.462 279.093 113.827 280.243 112.557C281.392 111.287 281.966 109.472 281.966 107.114V95.5014H286.774V118H282.511L282.148 114.054C281.452 115.445 280.424 116.548 279.063 117.365C277.733 118.151 276.19 118.544 274.436 118.544ZM303.142 118.544C300.965 118.544 299.045 118.03 297.382 117.002C295.718 115.974 294.418 114.568 293.481 112.784C292.543 110.999 292.074 108.973 292.074 106.705C292.074 104.437 292.543 102.426 293.481 100.672C294.418 98.8883 295.718 97.4973 297.382 96.4994C299.075 95.4712 301.01 94.9571 303.188 94.9571C304.972 94.9571 306.529 95.3049 307.86 96.0004C309.221 96.6959 310.279 97.6787 311.035 98.9488V85.3408H315.843V118H311.534L311.035 114.507C310.309 115.566 309.311 116.503 308.041 117.32C306.771 118.136 305.138 118.544 303.142 118.544ZM304.004 114.371C306.06 114.371 307.739 113.661 309.039 112.239C310.37 110.818 311.035 108.988 311.035 106.751C311.035 104.483 310.37 102.653 309.039 101.262C307.739 99.8409 306.06 99.1302 304.004 99.1302C301.948 99.1302 300.254 99.8409 298.924 101.262C297.593 102.653 296.928 104.483 296.928 106.751C296.928 108.232 297.23 109.548 297.835 110.697C298.44 111.846 299.272 112.753 300.33 113.419C301.419 114.054 302.643 114.371 304.004 114.371ZM333.515 118V86.248H345.49C348.787 86.248 351.281 87.0191 352.975 88.5614C354.668 90.1036 355.515 92.039 355.515 94.3674C355.515 96.3935 354.971 98.0114 353.882 99.221C352.793 100.4 351.478 101.202 349.936 101.625C351.145 101.867 352.219 102.351 353.156 103.077C354.124 103.802 354.88 104.71 355.424 105.798C355.969 106.887 356.241 108.066 356.241 109.336C356.241 110.969 355.833 112.451 355.016 113.782C354.23 115.082 353.066 116.11 351.523 116.866C349.981 117.622 348.091 118 345.853 118H333.515ZM338.324 99.856H344.901C346.745 99.856 348.152 99.4326 349.119 98.5859C350.087 97.709 350.571 96.5145 350.571 95.0025C350.571 93.5207 350.087 92.3414 349.119 91.4644C348.182 90.5874 346.745 90.149 344.81 90.149H338.324V99.856ZM338.324 114.054H345.218C347.154 114.054 348.651 113.6 349.709 112.693C350.798 111.786 351.342 110.516 351.342 108.883C351.342 107.25 350.782 105.964 349.664 105.027C348.545 104.059 347.033 103.576 345.128 103.576H338.324V114.054ZM371.853 118.544C369.646 118.544 367.68 118.06 365.956 117.093C364.263 116.095 362.932 114.719 361.965 112.965C360.997 111.211 360.513 109.17 360.513 106.841C360.513 104.483 360.982 102.411 361.919 100.627C362.887 98.843 364.218 97.4519 365.911 96.454C367.635 95.4561 369.63 94.9571 371.898 94.9571C374.106 94.9571 376.026 95.4561 377.659 96.454C379.292 97.4217 380.562 98.722 381.469 100.355C382.377 101.988 382.83 103.787 382.83 105.753C382.83 106.055 382.815 106.388 382.785 106.751C382.785 107.083 382.77 107.461 382.74 107.885H365.231C365.382 110.062 366.092 111.725 367.362 112.874C368.663 113.993 370.16 114.553 371.853 114.553C373.214 114.553 374.348 114.25 375.255 113.645C376.193 113.01 376.888 112.164 377.342 111.105H382.15C381.545 113.222 380.335 114.991 378.521 116.412C376.737 117.834 374.514 118.544 371.853 118.544ZM371.853 98.9034C370.25 98.9034 368.829 99.3873 367.589 100.355C366.349 101.292 365.593 102.714 365.321 104.619H378.022C377.931 102.865 377.311 101.474 376.162 100.446C375.013 99.4175 373.577 98.9034 371.853 98.9034ZM395.44 118.544C393.534 118.544 391.962 118.227 390.722 117.592C389.482 116.957 388.56 116.125 387.955 115.097C387.35 114.039 387.048 112.889 387.048 111.65C387.048 109.472 387.895 107.749 389.588 106.479C391.282 105.208 393.701 104.573 396.846 104.573H402.743V104.165C402.743 102.411 402.259 101.096 401.291 100.219C400.354 99.3419 399.129 98.9034 397.617 98.9034C396.286 98.9034 395.122 99.2361 394.124 99.9014C393.156 100.536 392.567 101.489 392.355 102.759H387.547C387.698 101.126 388.242 99.735 389.18 98.5859C390.148 97.4066 391.357 96.5145 392.809 95.9097C394.29 95.2746 395.908 94.9571 397.662 94.9571C400.807 94.9571 403.242 95.7887 404.965 97.4519C406.689 99.0849 407.551 101.323 407.551 104.165V118H403.378L402.969 114.144C402.334 115.384 401.412 116.428 400.202 117.274C398.993 118.121 397.405 118.544 395.44 118.544ZM396.392 114.643C397.692 114.643 398.781 114.341 399.658 113.736C400.565 113.101 401.261 112.27 401.745 111.241C402.259 110.213 402.576 109.079 402.697 107.839H397.345C395.44 107.839 394.079 108.172 393.262 108.837C392.476 109.503 392.083 110.334 392.083 111.332C392.083 112.36 392.461 113.177 393.217 113.782C394.003 114.356 395.062 114.643 396.392 114.643ZM413.157 118V95.5014H417.466L417.874 99.7653C418.661 98.2835 419.749 97.1193 421.14 96.2726C422.562 95.3956 424.27 94.9571 426.266 94.9571V99.9921H424.951C423.62 99.9921 422.425 100.219 421.367 100.672C420.339 101.096 419.507 101.837 418.872 102.895C418.267 103.923 417.965 105.36 417.965 107.204V118H413.157ZM209.373 165.544C206.228 165.544 203.506 164.864 201.208 163.503C198.94 162.112 197.186 160.192 195.946 157.742C194.706 155.263 194.087 152.405 194.087 149.169C194.087 145.903 194.706 143.046 195.946 140.596C197.186 138.117 198.94 136.181 201.208 134.79C203.506 133.399 206.228 132.704 209.373 132.704C213.092 132.704 216.132 133.611 218.49 135.425C220.849 137.24 222.346 139.78 222.981 143.046H217.628C217.205 141.201 216.298 139.734 214.907 138.646C213.516 137.557 211.656 137.013 209.328 137.013C206.152 137.013 203.642 138.102 201.798 140.279C199.953 142.426 199.031 145.389 199.031 149.169C199.031 152.919 199.953 155.868 201.798 158.015C203.642 160.162 206.152 161.235 209.328 161.235C211.656 161.235 213.516 160.721 214.907 159.693C216.298 158.665 217.205 157.259 217.628 155.474H222.981C222.346 158.619 220.849 161.084 218.49 162.868C216.132 164.652 213.092 165.544 209.373 165.544ZM238.608 165.544C236.461 165.544 234.526 165.06 232.802 164.093C231.109 163.095 229.763 161.719 228.765 159.965C227.767 158.181 227.268 156.109 227.268 153.751C227.268 151.392 227.767 149.336 228.765 147.582C229.793 145.798 231.169 144.422 232.893 143.454C234.616 142.456 236.537 141.957 238.653 141.957C240.801 141.957 242.721 142.456 244.414 143.454C246.138 144.422 247.499 145.798 248.497 147.582C249.525 149.336 250.039 151.392 250.039 153.751C250.039 156.109 249.525 158.181 248.497 159.965C247.499 161.719 246.138 163.095 244.414 164.093C242.691 165.06 240.755 165.544 238.608 165.544ZM238.608 161.417C239.757 161.417 240.816 161.129 241.783 160.555C242.781 159.98 243.583 159.133 244.187 158.015C244.792 156.865 245.095 155.444 245.095 153.751C245.095 152.057 244.792 150.651 244.187 149.532C243.613 148.383 242.827 147.521 241.829 146.947C240.861 146.372 239.803 146.085 238.653 146.085C237.504 146.085 236.431 146.372 235.433 146.947C234.465 147.521 233.679 148.383 233.074 149.532C232.469 150.651 232.167 152.057 232.167 153.751C232.167 155.444 232.469 156.865 233.074 158.015C233.679 159.133 234.465 159.98 235.433 160.555C236.401 161.129 237.459 161.417 238.608 161.417ZM255.239 165V142.501H259.502L259.865 146.448C260.561 145.057 261.574 143.968 262.904 143.182C264.265 142.365 265.823 141.957 267.576 141.957C270.298 141.957 272.43 142.804 273.972 144.497C275.545 146.191 276.331 148.716 276.331 152.072V165H271.568V152.571C271.568 148.217 269.784 146.04 266.216 146.04C264.432 146.04 262.95 146.675 261.77 147.945C260.621 149.215 260.047 151.029 260.047 153.388V165H255.239ZM290.975 165.544C288.133 165.544 285.789 164.849 283.944 163.458C282.1 162.067 281.041 160.222 280.769 157.924H285.623C285.865 158.952 286.439 159.844 287.346 160.6C288.254 161.326 289.448 161.689 290.93 161.689C292.381 161.689 293.44 161.386 294.105 160.782C294.77 160.177 295.103 159.481 295.103 158.695C295.103 157.546 294.634 156.775 293.697 156.382C292.79 155.958 291.519 155.58 289.887 155.248C288.616 154.975 287.346 154.613 286.076 154.159C284.836 153.705 283.793 153.07 282.946 152.254C282.13 151.407 281.722 150.273 281.722 148.852C281.722 146.886 282.478 145.253 283.99 143.953C285.502 142.622 287.619 141.957 290.34 141.957C292.85 141.957 294.876 142.562 296.418 143.772C297.991 144.981 298.913 146.69 299.185 148.897H294.559C294.407 147.93 293.954 147.174 293.198 146.629C292.472 146.085 291.489 145.813 290.249 145.813C289.04 145.813 288.102 146.07 287.437 146.584C286.772 147.068 286.439 147.703 286.439 148.489C286.439 149.275 286.893 149.895 287.8 150.349C288.737 150.802 289.962 151.211 291.474 151.573C292.986 151.906 294.377 152.299 295.647 152.753C296.948 153.176 297.991 153.811 298.777 154.658C299.563 155.505 299.956 156.744 299.956 158.377C299.987 160.434 299.185 162.142 297.552 163.503C295.95 164.864 293.757 165.544 290.975 165.544ZM313.506 165.544C310.785 165.544 308.638 164.698 307.065 163.004C305.523 161.311 304.752 158.786 304.752 155.429V142.501H309.56V154.93C309.56 159.285 311.344 161.462 314.912 161.462C316.697 161.462 318.163 160.827 319.312 159.557C320.462 158.287 321.036 156.472 321.036 154.114V142.501H325.844V165H321.58L321.218 161.054C320.522 162.445 319.494 163.548 318.133 164.365C316.802 165.151 315.26 165.544 313.506 165.544ZM331.961 165V132.341H336.769V165H331.961ZM352.293 165C350.085 165 348.331 164.471 347.031 163.412C345.731 162.324 345.08 160.404 345.08 157.652V146.538H341.225V142.501H345.08L345.67 136.786H349.889V142.501H356.239V146.538H349.889V157.652C349.889 158.892 350.146 159.753 350.66 160.237C351.204 160.691 352.126 160.918 353.427 160.918H356.012V165H352.293ZM363.918 138.238C363.011 138.238 362.255 137.965 361.65 137.421C361.076 136.847 360.788 136.136 360.788 135.289C360.788 134.442 361.076 133.747 361.65 133.203C362.255 132.628 363.011 132.341 363.918 132.341C364.825 132.341 365.566 132.628 366.141 133.203C366.746 133.747 367.048 134.442 367.048 135.289C367.048 136.136 366.746 136.847 366.141 137.421C365.566 137.965 364.825 138.238 363.918 138.238ZM361.514 165V142.501H366.322V165H361.514ZM372.67 165V142.501H376.933L377.296 146.448C377.992 145.057 379.005 143.968 380.335 143.182C381.696 142.365 383.254 141.957 385.008 141.957C387.729 141.957 389.861 142.804 391.403 144.497C392.976 146.191 393.762 148.716 393.762 152.072V165H388.999V152.571C388.999 148.217 387.215 146.04 383.647 146.04C381.863 146.04 380.381 146.675 379.201 147.945C378.052 149.215 377.478 151.029 377.478 153.388V165H372.67ZM408.633 158.105C407.454 158.105 406.365 157.969 405.367 157.697L403.417 159.602C403.749 159.814 404.157 159.995 404.641 160.146C405.125 160.298 405.806 160.434 406.682 160.555C407.559 160.676 408.754 160.797 410.266 160.918C413.26 161.19 415.422 161.916 416.752 163.095C418.083 164.244 418.748 165.786 418.748 167.722C418.748 169.052 418.385 170.307 417.66 171.486C416.964 172.696 415.86 173.664 414.348 174.39C412.867 175.146 410.961 175.524 408.633 175.524C405.488 175.524 402.933 174.919 400.967 173.709C399.032 172.53 398.064 170.73 398.064 168.311C398.064 167.374 398.306 166.436 398.79 165.499C399.304 164.592 400.105 163.73 401.194 162.913C400.559 162.641 399.999 162.354 399.516 162.052C399.062 161.719 398.654 161.386 398.291 161.054V159.965L402.192 155.973C400.438 154.461 399.561 152.481 399.561 150.031C399.561 148.549 399.909 147.204 400.604 145.994C401.33 144.754 402.373 143.772 403.734 143.046C405.095 142.32 406.728 141.957 408.633 141.957C409.903 141.957 411.082 142.139 412.171 142.501H420.563V145.677L416.571 145.903C417.297 147.143 417.66 148.519 417.66 150.031C417.66 151.543 417.297 152.904 416.571 154.114C415.875 155.323 414.847 156.291 413.486 157.017C412.156 157.742 410.538 158.105 408.633 158.105ZM408.633 154.34C410.024 154.34 411.143 153.978 411.99 153.252C412.867 152.496 413.305 151.437 413.305 150.077C413.305 148.686 412.867 147.627 411.99 146.901C411.143 146.176 410.024 145.813 408.633 145.813C407.212 145.813 406.063 146.176 405.186 146.901C404.339 147.627 403.916 148.686 403.916 150.077C403.916 151.437 404.339 152.496 405.186 153.252C406.063 153.978 407.212 154.34 408.633 154.34ZM402.6 167.858C402.6 169.158 403.175 170.126 404.324 170.761C405.473 171.426 406.909 171.759 408.633 171.759C410.296 171.759 411.642 171.396 412.67 170.67C413.698 169.974 414.212 169.037 414.212 167.858C414.212 166.981 413.864 166.225 413.169 165.59C412.473 164.985 411.158 164.607 409.223 164.456C407.771 164.365 406.486 164.229 405.367 164.047C404.309 164.622 403.583 165.242 403.19 165.907C402.797 166.572 402.6 167.223 402.6 167.858Z" fill="white"/>
<circle cx="89.5" cy="118.5" r="69.5" fill="#FFCC2A"/>
<mask id="mask0_703_239" style="mask-type:alpha" maskUnits="userSpaceOnUse" x="20" y="49" width="139" height="139">
<circle cx="89.4446" cy="118.445" r="69.4446" fill="#FFCC2A"/>
</mask>
<g mask="url(#mask0_703_239)">
<path d="M75.7271 76.659C37.451 51.047 -6.10218 113.032 38.0041 164.086C43.1482 169.028 44.0055 170.186 51.7216 175.886C47.7695 166.61 50.8596 150.141 54.6214 142.578C56.6347 156.053 65.0524 169.787 73.6258 175.886L78.5919 177.092L84.3006 175.886C74.8613 154.219 79.2572 140.975 93.7314 135.592C104.367 140.692 104.778 151.902 96.3034 187.032C107.449 187.032 106.279 184.702 115.165 182.745C145.172 170.186 167.387 132.479 155.46 99.883C151.761 110.028 112.999 113.626 103.416 119.465C85.917 125.897 77.2199 130.053 63.6098 138.405C58.2086 138.631 56.4111 136.577 54.6214 133.02C56.6743 130.14 58.8568 126.145 60.4361 121.07C59.1156 113.366 63.9297 108.828 61.6837 108.229C58.7821 107.456 57.5105 101.809 57.8315 99.883C57.5105 99.2409 59.7576 97.8685 61.6837 97.8685C63.6098 97.8685 78.8975 98.406 75.7271 76.659Z" fill="black" stroke="black" stroke-width="1.26875"/>
<path d="M94.4939 99.0514C91.1152 96.8102 84.5955 103.48 87.1896 103.69C89.7837 103.9 93.3398 105.041 94.6057 107.134C95.8717 109.226 100.095 102.766 94.4939 99.0514Z" fill="black"/>
<path d="M76.6379 116.152C79.6622 114.759 78.038 118.238 78.038 118.238C78.038 118.238 77.5157 118.684 77.1503 118.927C76.2488 119.527 75.6879 120.021 74.7582 120.283C73.8284 120.544 73.7361 120.283 73.7361 120.283C73.7361 120.283 73.4877 119.863 73.3954 119.601C73.3031 119.34 73.6136 117.545 76.6379 116.152Z" fill="black"/>
</g>
</g>
<defs>
<clipPath id="clip0_703_239">
<rect width="468" height="236" fill="white"/>
</clipPath>
</defs>
</svg>
