<svg width="210" height="153" viewBox="0 0 210 153" fill="none" xmlns="http://www.w3.org/2000/svg">
<path d="M130.96 107.848C127.845 107.848 125.072 107.165 122.64 105.8C120.251 104.392 118.373 102.451 117.008 99.9761C115.643 97.5014 114.96 94.6214 114.96 91.3361C114.96 88.0081 115.621 85.0854 116.944 82.5681C118.309 80.0507 120.187 78.0881 122.576 76.6801C125.008 75.2721 127.824 74.5681 131.024 74.5681C134.139 74.5681 136.848 75.2721 139.152 76.6801C141.456 78.0454 143.248 79.8801 144.528 82.1841C145.808 84.4881 146.448 87.0267 146.448 89.8001C146.448 90.2267 146.427 90.6961 146.384 91.2081C146.384 91.6774 146.363 92.2107 146.32 92.8081H121.616C121.829 95.8801 122.832 98.2267 124.624 99.8481C126.459 101.427 128.571 102.216 130.96 102.216C132.88 102.216 134.48 101.789 135.76 100.936C137.083 100.04 138.064 98.8454 138.704 97.3521H145.488C144.635 100.339 142.928 102.835 140.368 104.84C137.851 106.845 134.715 107.848 130.96 107.848ZM130.96 80.1361C128.699 80.1361 126.693 80.8187 124.944 82.1841C123.195 83.5067 122.128 85.5121 121.744 88.2001H139.664C139.536 85.7254 138.661 83.7627 137.04 82.3121C135.419 80.8614 133.392 80.1361 130.96 80.1361ZM164.239 107.848C161.551 107.848 159.332 107.4 157.583 106.504C155.834 105.608 154.532 104.435 153.679 102.984C152.826 101.491 152.399 99.8694 152.399 98.1201C152.399 95.0481 153.594 92.6161 155.983 90.8241C158.372 89.0321 161.786 88.1361 166.223 88.1361H174.543V87.5601C174.543 85.0854 173.86 83.2294 172.495 81.9921C171.172 80.7547 169.444 80.1361 167.311 80.1361C165.434 80.1361 163.791 80.6054 162.383 81.5441C161.018 82.4401 160.186 83.7841 159.887 85.5761H153.103C153.316 83.2721 154.084 81.3094 155.407 79.6881C156.772 78.0241 158.479 76.7654 160.527 75.9121C162.618 75.0161 164.9 74.5681 167.375 74.5681C171.812 74.5681 175.247 75.7414 177.679 78.0881C180.111 80.3921 181.327 83.5494 181.327 87.5601V107.08H175.439L174.863 101.64C173.967 103.389 172.666 104.861 170.959 106.056C169.252 107.251 167.012 107.848 164.239 107.848ZM165.583 102.344C167.418 102.344 168.954 101.917 170.191 101.064C171.471 100.168 172.452 98.9947 173.135 97.5441C173.86 96.0934 174.308 94.4934 174.479 92.7441H166.927C164.239 92.7441 162.319 93.2134 161.167 94.1521C160.058 95.0907 159.503 96.2641 159.503 97.6721C159.503 99.1227 160.036 100.275 161.103 101.128C162.212 101.939 163.706 102.344 165.583 102.344ZM189.237 107.08V75.3361H195.317L195.893 81.3521C197.002 79.2614 198.538 77.6187 200.501 76.4241C202.506 75.1867 204.917 74.5681 207.733 74.5681V81.6721H205.877C204 81.6721 202.314 81.9921 200.821 82.6321C199.37 83.2294 198.197 84.2747 197.301 85.7681C196.448 87.2187 196.021 89.2454 196.021 91.8481V107.08H189.237Z" fill="#363435"/>
<path d="M60.06 144.36C58.6 144.36 57.29 144.03 56.13 143.37C54.99 142.71 54.09 141.8 53.43 140.64C52.79 139.46 52.47 138.1 52.47 136.56C52.47 135.02 52.79 133.67 53.43 132.51C54.09 131.33 54.99 130.41 56.13 129.75C57.29 129.09 58.6 128.76 60.06 128.76C61.9 128.76 63.44 129.24 64.68 130.2C65.94 131.16 66.75 132.46 67.11 134.1H63.78C63.58 133.28 63.14 132.64 62.46 132.18C61.78 131.72 60.98 131.49 60.06 131.49C59.28 131.49 58.56 131.69 57.9 132.09C57.24 132.47 56.71 133.04 56.31 133.8C55.91 134.54 55.71 135.46 55.71 136.56C55.71 137.66 55.91 138.59 56.31 139.35C56.71 140.09 57.24 140.66 57.9 141.06C58.56 141.46 59.28 141.66 60.06 141.66C60.98 141.66 61.78 141.43 62.46 140.97C63.14 140.51 63.58 139.86 63.78 139.02H67.11C66.77 140.62 65.97 141.91 64.71 142.89C63.45 143.87 61.9 144.36 60.06 144.36ZM78.7188 144.36C77.2988 144.36 76.0188 144.04 74.8788 143.4C73.7588 142.74 72.8688 141.83 72.2088 140.67C71.5488 139.49 71.2188 138.12 71.2188 136.56C71.2188 135 71.5488 133.64 72.2088 132.48C72.8888 131.3 73.7988 130.39 74.9388 129.75C76.0788 129.09 77.3488 128.76 78.7488 128.76C80.1688 128.76 81.4388 129.09 82.5588 129.75C83.6988 130.39 84.5988 131.3 85.2588 132.48C85.9388 133.64 86.2788 135 86.2788 136.56C86.2788 138.12 85.9388 139.49 85.2588 140.67C84.5988 141.83 83.6988 142.74 82.5588 143.4C81.4188 144.04 80.1388 144.36 78.7188 144.36ZM78.7188 141.63C79.4788 141.63 80.1788 141.44 80.8188 141.06C81.4788 140.68 82.0088 140.12 82.4088 139.38C82.8088 138.62 83.0088 137.68 83.0088 136.56C83.0088 135.44 82.8088 134.51 82.4088 133.77C82.0288 133.01 81.5088 132.44 80.8488 132.06C80.2088 131.68 79.5088 131.49 78.7488 131.49C77.9888 131.49 77.2788 131.68 76.6188 132.06C75.9788 132.44 75.4588 133.01 75.0588 133.77C74.6588 134.51 74.4588 135.44 74.4588 136.56C74.4588 137.68 74.6588 138.62 75.0588 139.38C75.4588 140.12 75.9788 140.68 76.6188 141.06C77.2588 141.44 77.9588 141.63 78.7188 141.63ZM90.9178 144V129.12H93.7378L93.9778 131.73C94.4378 130.81 95.1078 130.09 95.9878 129.57C96.8878 129.03 97.9178 128.76 99.0778 128.76C100.878 128.76 102.288 129.32 103.308 130.44C104.348 131.56 104.868 133.23 104.868 135.45V144H101.718V135.78C101.718 132.9 100.538 131.46 98.1778 131.46C96.9978 131.46 96.0178 131.88 95.2378 132.72C94.4778 133.56 94.0978 134.76 94.0978 136.32V144H90.9178ZM115.753 144.36C113.873 144.36 112.323 143.9 111.103 142.98C109.883 142.06 109.183 140.84 109.003 139.32H112.213C112.373 140 112.753 140.59 113.353 141.09C113.953 141.57 114.743 141.81 115.723 141.81C116.683 141.81 117.383 141.61 117.823 141.21C118.263 140.81 118.483 140.35 118.483 139.83C118.483 139.07 118.173 138.56 117.553 138.3C116.953 138.02 116.113 137.77 115.033 137.55C114.193 137.37 113.353 137.13 112.513 136.83C111.693 136.53 111.003 136.11 110.443 135.57C109.903 135.01 109.633 134.26 109.633 133.32C109.633 132.02 110.133 130.94 111.133 130.08C112.133 129.2 113.533 128.76 115.333 128.76C116.993 128.76 118.333 129.16 119.353 129.96C120.393 130.76 121.003 131.89 121.183 133.35H118.123C118.023 132.71 117.723 132.21 117.223 131.85C116.743 131.49 116.093 131.31 115.273 131.31C114.473 131.31 113.853 131.48 113.413 131.82C112.973 132.14 112.753 132.56 112.753 133.08C112.753 133.6 113.053 134.01 113.653 134.31C114.273 134.61 115.083 134.88 116.083 135.12C117.083 135.34 118.003 135.6 118.843 135.9C119.703 136.18 120.393 136.6 120.913 137.16C121.433 137.72 121.693 138.54 121.693 139.62C121.713 140.98 121.183 142.11 120.103 143.01C119.043 143.91 117.593 144.36 115.753 144.36ZM131.855 144.36C130.055 144.36 128.635 143.8 127.595 142.68C126.575 141.56 126.065 139.89 126.065 137.67V129.12H129.245V137.34C129.245 140.22 130.425 141.66 132.785 141.66C133.965 141.66 134.935 141.24 135.695 140.4C136.455 139.56 136.835 138.36 136.835 136.8V129.12H140.015V144H137.195L136.955 141.39C136.495 142.31 135.815 143.04 134.915 143.58C134.035 144.1 133.015 144.36 131.855 144.36ZM145.26 144V122.4H148.44V144H145.26ZM159.907 144C158.447 144 157.287 143.65 156.427 142.95C155.567 142.23 155.137 140.96 155.137 139.14V131.79H152.587V129.12H155.137L155.527 125.34H158.317V129.12H162.517V131.79H158.317V139.14C158.317 139.96 158.487 140.53 158.827 140.85C159.187 141.15 159.797 141.3 160.657 141.3H162.367V144H159.907ZM168.796 126.3C168.196 126.3 167.696 126.12 167.296 125.76C166.916 125.38 166.726 124.91 166.726 124.35C166.726 123.79 166.916 123.33 167.296 122.97C167.696 122.59 168.196 122.4 168.796 122.4C169.396 122.4 169.886 122.59 170.266 122.97C170.666 123.33 170.866 123.79 170.866 124.35C170.866 124.91 170.666 125.38 170.266 125.76C169.886 126.12 169.396 126.3 168.796 126.3ZM167.206 144V129.12H170.386V144H167.206ZM175.784 144V129.12H178.604L178.844 131.73C179.304 130.81 179.974 130.09 180.854 129.57C181.754 129.03 182.784 128.76 183.944 128.76C185.744 128.76 187.154 129.32 188.174 130.44C189.214 131.56 189.734 133.23 189.734 135.45V144H186.584V135.78C186.584 132.9 185.404 131.46 183.044 131.46C181.864 131.46 180.884 131.88 180.104 132.72C179.344 133.56 178.964 134.76 178.964 136.32V144H175.784ZM200.769 139.44C199.989 139.44 199.269 139.35 198.609 139.17L197.319 140.43C197.539 140.57 197.809 140.69 198.129 140.79C198.449 140.89 198.899 140.98 199.479 141.06C200.059 141.14 200.849 141.22 201.849 141.3C203.829 141.48 205.259 141.96 206.139 142.74C207.019 143.5 207.459 144.52 207.459 145.8C207.459 146.68 207.219 147.51 206.739 148.29C206.279 149.09 205.549 149.73 204.549 150.21C203.569 150.71 202.309 150.96 200.769 150.96C198.689 150.96 196.999 150.56 195.699 149.76C194.419 148.98 193.779 147.79 193.779 146.19C193.779 145.57 193.939 144.95 194.259 144.33C194.599 143.73 195.129 143.16 195.849 142.62C195.429 142.44 195.059 142.25 194.739 142.05C194.439 141.83 194.169 141.61 193.929 141.39V140.67L196.509 138.03C195.349 137.03 194.769 135.72 194.769 134.1C194.769 133.12 194.999 132.23 195.459 131.43C195.939 130.61 196.629 129.96 197.529 129.48C198.429 129 199.509 128.76 200.769 128.76C201.609 128.76 202.389 128.88 203.109 129.12H208.659V131.22L206.019 131.37C206.499 132.19 206.739 133.1 206.739 134.1C206.739 135.1 206.499 136 206.019 136.8C205.559 137.6 204.879 138.24 203.979 138.72C203.099 139.2 202.029 139.44 200.769 139.44ZM200.769 136.95C201.689 136.95 202.429 136.71 202.989 136.23C203.569 135.73 203.859 135.03 203.859 134.13C203.859 133.21 203.569 132.51 202.989 132.03C202.429 131.55 201.689 131.31 200.769 131.31C199.829 131.31 199.069 131.55 198.489 132.03C197.929 132.51 197.649 133.21 197.649 134.13C197.649 135.03 197.929 135.73 198.489 136.23C199.069 136.71 199.829 136.95 200.769 136.95ZM196.779 145.89C196.779 146.75 197.159 147.39 197.919 147.81C198.679 148.25 199.629 148.47 200.769 148.47C201.869 148.47 202.759 148.23 203.439 147.75C204.119 147.29 204.459 146.67 204.459 145.89C204.459 145.31 204.229 144.81 203.769 144.39C203.309 143.99 202.439 143.74 201.159 143.64C200.199 143.58 199.349 143.49 198.609 143.37C197.909 143.75 197.429 144.16 197.169 144.6C196.909 145.04 196.779 145.47 196.779 145.89Z" fill="#363435"/>
<path d="M21.568 48.0163C17.1307 48.0163 13.2907 47.0563 10.048 45.1363C6.848 43.1736 4.37333 40.4643 2.624 37.0083C0.874667 33.5096 0 29.4776 0 24.9123C0 20.3043 0.874667 16.2723 2.624 12.8163C4.37333 9.31764 6.848 6.58697 10.048 4.6243C13.2907 2.66164 17.1307 1.6803 21.568 1.6803C26.816 1.6803 31.104 2.9603 34.432 5.5203C37.76 8.0803 39.872 11.6643 40.768 16.2723H33.216C32.6187 13.6696 31.3387 11.6003 29.376 10.0643C27.4133 8.5283 24.7893 7.7603 21.504 7.7603C17.024 7.7603 13.4827 9.2963 10.88 12.3683C8.27733 15.3976 6.976 19.579 6.976 24.9123C6.976 30.203 8.27733 34.363 10.88 37.3923C13.4827 40.4216 17.024 41.9363 21.504 41.9363C24.7893 41.9363 27.4133 41.211 29.376 39.7603C31.3387 38.3096 32.6187 36.3256 33.216 33.8083H40.768C39.872 38.2456 37.76 41.723 34.432 44.2403C31.104 46.7576 26.816 48.0163 21.568 48.0163Z" fill="#363435"/>
<path d="M56.737 46.08V0H63.521V46.08H56.737Z" fill="#363435"/>
<path d="M94.96 46.848C91.9307 46.848 89.2 46.1653 86.768 44.8C84.3787 43.392 82.48 41.4507 81.072 38.976C79.664 36.4587 78.96 33.536 78.96 30.208C78.96 26.88 79.664 23.9787 81.072 21.504C82.5227 18.9867 84.464 17.0453 86.896 15.68C89.328 14.272 92.0374 13.568 95.024 13.568C98.0534 13.568 100.763 14.272 103.152 15.68C105.584 17.0453 107.504 18.9867 108.912 21.504C110.363 23.9787 111.088 26.88 111.088 30.208C111.088 33.536 110.363 36.4587 108.912 38.976C107.504 41.4507 105.584 43.392 103.152 44.8C100.72 46.1653 97.9894 46.848 94.96 46.848ZM94.96 41.024C96.5814 41.024 98.0747 40.6187 99.44 39.808C100.848 38.9973 101.979 37.8027 102.832 36.224C103.685 34.6027 104.112 32.5973 104.112 30.208C104.112 27.8187 103.685 25.8347 102.832 24.256C102.021 22.6347 100.912 21.4187 99.504 20.608C98.1387 19.7973 96.6454 19.392 95.024 19.392C93.4027 19.392 91.888 19.7973 90.48 20.608C89.1147 21.4187 88.0054 22.6347 87.152 24.256C86.2987 25.8347 85.872 27.8187 85.872 30.208C85.872 32.5973 86.2987 34.6027 87.152 36.224C88.0054 37.8027 89.1147 38.9973 90.48 39.808C91.8454 40.6187 93.3387 41.024 94.96 41.024Z" fill="#363435"/>
<path d="M140.137 46.848C136.297 46.848 133.267 45.6533 131.049 43.264C128.873 40.8747 127.785 37.312 127.785 32.576V14.336H134.569V31.872C134.569 38.016 137.086 41.088 142.121 41.088C144.638 41.088 146.707 40.192 148.329 38.4C149.95 36.608 150.761 34.048 150.761 30.72V14.336H157.545V46.08H151.529L151.017 40.512C150.035 42.4747 148.585 44.032 146.665 45.184C144.787 46.2933 142.611 46.848 140.137 46.848Z" fill="#363435"/>
<path d="M190.639 46.848C187.567 46.848 184.857 46.1227 182.511 44.672C180.164 43.2213 178.329 41.2373 177.007 38.72C175.684 36.2027 175.023 33.344 175.023 30.144C175.023 26.944 175.684 24.1067 177.007 21.632C178.329 19.1147 180.164 17.152 182.511 15.744C184.9 14.2933 187.631 13.568 190.703 13.568C193.22 13.568 195.417 14.0587 197.295 15.04C199.215 16.0213 200.708 17.408 201.775 19.2V0H208.559V46.08H202.479L201.775 41.152C200.751 42.6453 199.343 43.968 197.551 45.12C195.759 46.272 193.455 46.848 190.639 46.848ZM191.855 40.96C194.756 40.96 197.124 39.9573 198.959 37.952C200.836 35.9467 201.775 33.3653 201.775 30.208C201.775 27.008 200.836 24.4267 198.959 22.464C197.124 20.4587 194.756 19.456 191.855 19.456C188.953 19.456 186.564 20.4587 184.687 22.464C182.809 24.4267 181.871 27.008 181.871 30.208C181.871 32.2987 182.297 34.1547 183.151 35.776C184.004 37.3973 185.177 38.6773 186.671 39.616C188.207 40.512 189.935 40.96 191.855 40.96Z" fill="#363435"/>
<rect x="51.824" y="0.0800781" width="18" height="113" fill="#FFCC2A"/>
<mask id="path-5-outside-1_667_192" maskUnits="userSpaceOnUse" x="48.9975" y="50.2585" width="64.9607" height="64.9607" fill="black">
<rect fill="white" x="48.9975" y="50.2585" width="64.9607" height="64.9607"/>
<path d="M52.2718 82.6954C52.1833 88.5494 53.8326 94.2982 57.0113 99.2148C60.19 104.131 64.7552 107.995 70.1297 110.317C75.5042 112.639 81.4466 113.315 87.2053 112.26C92.9641 111.205 98.2807 108.466 102.483 104.389C106.685 100.312 109.583 95.0809 110.812 89.3566C112.041 83.6324 111.545 77.6723 109.387 72.23C107.228 66.7878 103.505 62.1078 98.6863 58.7818C93.8681 55.4559 88.1718 53.6334 82.3179 53.5449L82.0616 70.4844C84.5653 70.5223 87.0015 71.3017 89.0622 72.7242C91.1229 74.1466 92.7155 76.1482 93.6386 78.4758C94.5617 80.8034 94.7739 83.3524 94.2483 85.8006C93.7227 88.2488 92.483 90.4861 90.6858 92.2297C88.8887 93.9733 86.6149 95.1448 84.1519 95.5961C81.689 96.0474 79.1475 95.7582 76.8489 94.7651C74.5503 93.772 72.5978 92.1196 71.2383 90.0168C69.8789 87.914 69.1735 85.4554 69.2113 82.9517L52.2718 82.6954Z"/>
</mask>
<path d="M52.2718 82.6954C52.1833 88.5494 53.8326 94.2982 57.0113 99.2148C60.19 104.131 64.7552 107.995 70.1297 110.317C75.5042 112.639 81.4466 113.315 87.2053 112.26C92.9641 111.205 98.2807 108.466 102.483 104.389C106.685 100.312 109.583 95.0809 110.812 89.3566C112.041 83.6324 111.545 77.6723 109.387 72.23C107.228 66.7878 103.505 62.1078 98.6863 58.7818C93.8681 55.4559 88.1718 53.6334 82.3179 53.5449L82.0616 70.4844C84.5653 70.5223 87.0015 71.3017 89.0622 72.7242C91.1229 74.1466 92.7155 76.1482 93.6386 78.4758C94.5617 80.8034 94.7739 83.3524 94.2483 85.8006C93.7227 88.2488 92.483 90.4861 90.6858 92.2297C88.8887 93.9733 86.6149 95.1448 84.1519 95.5961C81.689 96.0474 79.1475 95.7582 76.8489 94.7651C74.5503 93.772 72.5978 92.1196 71.2383 90.0168C69.8789 87.914 69.1735 85.4554 69.2113 82.9517L52.2718 82.6954Z" fill="#FFCC2A"/>
<path d="M52.2718 82.6954C52.1833 88.5494 53.8326 94.2982 57.0113 99.2148C60.19 104.131 64.7552 107.995 70.1297 110.317C75.5042 112.639 81.4466 113.315 87.2053 112.26C92.9641 111.205 98.2807 108.466 102.483 104.389C106.685 100.312 109.583 95.0809 110.812 89.3566C112.041 83.6324 111.545 77.6723 109.387 72.23C107.228 66.7878 103.505 62.1078 98.6863 58.7818C93.8681 55.4559 88.1718 53.6334 82.3179 53.5449L82.0616 70.4844C84.5653 70.5223 87.0015 71.3017 89.0622 72.7242C91.1229 74.1466 92.7155 76.1482 93.6386 78.4758C94.5617 80.8034 94.7739 83.3524 94.2483 85.8006C93.7227 88.2488 92.483 90.4861 90.6858 92.2297C88.8887 93.9733 86.6149 95.1448 84.1519 95.5961C81.689 96.0474 79.1475 95.7582 76.8489 94.7651C74.5503 93.772 72.5978 92.1196 71.2383 90.0168C69.8789 87.914 69.1735 85.4554 69.2113 82.9517L52.2718 82.6954Z" stroke="white" stroke-width="4" mask="url(#path-5-outside-1_667_192)"/>
</svg>
