<svg width="465" height="465" viewBox="0 0 465 465" fill="none" xmlns="http://www.w3.org/2000/svg">
<circle cx="233" cy="187" r="102" fill="#FFCC2A"/>
<mask id="mask0_620_518" style="mask-type:alpha" maskUnits="userSpaceOnUse" x="131" y="85" width="204" height="204">
<circle cx="232.919" cy="186.919" r="101.919" fill="#FFCC2A"/>
</mask>
<g mask="url(#mask0_620_518)">
<path d="M212.787 125.593C156.612 88.0043 92.6917 178.974 157.423 253.904C164.973 261.156 166.231 262.855 177.555 271.222C171.755 257.607 176.29 233.437 181.811 222.338C184.766 242.113 197.12 262.27 209.703 271.222L216.991 272.991L225.369 271.222C211.516 239.422 217.967 219.985 239.21 212.084C254.819 219.57 255.422 236.021 242.985 287.579C259.342 287.579 257.626 284.16 270.666 281.288C314.705 262.855 347.309 207.515 329.804 159.677C324.376 174.566 267.487 179.847 253.423 188.416C227.741 197.856 214.977 203.956 195.003 216.213C187.076 216.545 184.438 213.53 181.811 208.309C184.824 204.083 188.027 198.22 190.345 190.772C188.407 179.465 195.472 172.805 192.176 171.927C187.918 170.791 186.051 162.504 186.522 159.677C186.051 158.735 189.349 156.721 192.176 156.721C195.003 156.721 217.439 157.509 212.787 125.593Z" fill="black" stroke="black" stroke-width="1.26875"/>
<path d="M240.329 158.457C235.371 155.167 225.802 164.956 229.609 165.264C233.416 165.573 238.635 167.247 240.493 170.318C242.351 173.389 248.549 163.909 240.329 158.457Z" fill="black"/>
<path d="M214.123 183.554C218.562 181.51 216.178 186.616 216.178 186.616C216.178 186.616 215.412 187.27 214.875 187.627C213.552 188.507 212.729 189.233 211.365 189.616C210 190 209.865 189.616 209.865 189.616C209.865 189.616 209.5 189 209.365 188.616C209.229 188.233 209.685 185.598 214.123 183.554Z" fill="black"/>
</g>
<path d="M182.566 355.289C181.425 355.289 180.396 355.032 179.48 354.518C178.58 353.988 177.865 353.256 177.335 352.324C176.821 351.376 176.563 350.275 176.563 349.022C176.563 347.768 176.821 346.675 177.335 345.743C177.865 344.795 178.58 344.064 179.48 343.55C180.396 343.019 181.425 342.754 182.566 342.754C183.98 342.754 185.169 343.124 186.134 343.863C187.114 344.602 187.733 345.591 187.99 346.828H185.917C185.756 346.089 185.362 345.518 184.735 345.116C184.109 344.699 183.377 344.49 182.542 344.49C181.867 344.49 181.232 344.658 180.637 344.996C180.043 345.333 179.561 345.84 179.191 346.515C178.821 347.19 178.637 348.025 178.637 349.022C178.637 350.018 178.821 350.854 179.191 351.529C179.561 352.204 180.043 352.718 180.637 353.071C181.232 353.409 181.867 353.578 182.542 353.578C183.377 353.578 184.109 353.377 184.735 352.975C185.362 352.557 185.756 351.971 185.917 351.215H187.99C187.749 352.421 187.138 353.401 186.158 354.156C185.177 354.912 183.98 355.289 182.566 355.289ZM196.266 355.289C195.141 355.289 194.128 355.032 193.228 354.518C192.328 354.004 191.613 353.28 191.083 352.348C190.569 351.4 190.312 350.291 190.312 349.022C190.312 347.752 190.577 346.651 191.107 345.719C191.637 344.771 192.353 344.04 193.252 343.525C194.169 343.011 195.189 342.754 196.314 342.754C197.439 342.754 198.451 343.011 199.351 343.525C200.251 344.04 200.958 344.771 201.473 345.719C202.003 346.651 202.268 347.752 202.268 349.022C202.268 350.291 202.003 351.4 201.473 352.348C200.942 353.28 200.219 354.004 199.303 354.518C198.403 355.032 197.391 355.289 196.266 355.289ZM196.266 353.554C196.957 353.554 197.6 353.385 198.194 353.047C198.789 352.71 199.271 352.204 199.641 351.529C200.01 350.854 200.195 350.018 200.195 349.022C200.195 348.025 200.01 347.19 199.641 346.515C199.287 345.84 198.813 345.333 198.218 344.996C197.624 344.658 196.989 344.49 196.314 344.49C195.623 344.49 194.98 344.658 194.385 344.996C193.791 345.333 193.309 345.84 192.939 346.515C192.569 347.19 192.385 348.025 192.385 349.022C192.385 350.018 192.569 350.854 192.939 351.529C193.309 352.204 193.783 352.71 194.361 353.047C194.956 353.385 195.591 353.554 196.266 353.554ZM205.084 355V343.043H206.916L207.036 345.189C207.422 344.433 207.976 343.839 208.7 343.405C209.423 342.971 210.242 342.754 211.159 342.754C212.573 342.754 213.698 343.188 214.533 344.056C215.385 344.908 215.811 346.225 215.811 348.009V355H213.786V348.226C213.786 345.735 212.758 344.49 210.7 344.49C209.672 344.49 208.812 344.867 208.121 345.623C207.446 346.362 207.109 347.423 207.109 348.805V355H205.084ZM223.459 355.289C222.029 355.289 220.84 354.928 219.891 354.204C218.943 353.481 218.389 352.501 218.228 351.264H220.301C220.43 351.89 220.759 352.437 221.29 352.903C221.836 353.353 222.567 353.578 223.483 353.578C224.335 353.578 224.962 353.401 225.364 353.047C225.765 352.678 225.966 352.244 225.966 351.746C225.966 351.022 225.701 350.54 225.171 350.299C224.656 350.058 223.925 349.841 222.977 349.648C222.334 349.52 221.691 349.335 221.048 349.094C220.406 348.853 219.867 348.515 219.433 348.082C218.999 347.632 218.782 347.045 218.782 346.322C218.782 345.277 219.168 344.425 219.94 343.766C220.727 343.092 221.788 342.754 223.122 342.754C224.391 342.754 225.428 343.075 226.231 343.718C227.051 344.345 227.525 345.245 227.654 346.418H225.653C225.572 345.807 225.307 345.333 224.857 344.996C224.423 344.642 223.837 344.466 223.098 344.466C222.374 344.466 221.812 344.618 221.41 344.924C221.024 345.229 220.832 345.631 220.832 346.129C220.832 346.611 221.081 346.989 221.579 347.262C222.093 347.535 222.784 347.768 223.652 347.961C224.391 348.122 225.09 348.323 225.749 348.564C226.424 348.789 226.971 349.134 227.388 349.6C227.822 350.05 228.039 350.709 228.039 351.577C228.055 352.654 227.646 353.546 226.81 354.253C225.99 354.944 224.873 355.289 223.459 355.289ZM235.295 355.289C233.881 355.289 232.756 354.863 231.92 354.012C231.085 353.144 230.667 351.818 230.667 350.034V343.043H232.692V349.817C232.692 352.308 233.712 353.554 235.753 353.554C236.798 353.554 237.658 353.184 238.333 352.445C239.024 351.689 239.369 350.621 239.369 349.239V343.043H241.394V355H239.562L239.417 352.855C239.048 353.61 238.493 354.204 237.754 354.638C237.031 355.072 236.211 355.289 235.295 355.289ZM244.727 355V337.644H246.752V355H244.727ZM254.796 355C253.703 355 252.843 354.735 252.217 354.204C251.59 353.674 251.276 352.718 251.276 351.336V344.755H249.203V343.043H251.276L251.542 340.175H253.301V343.043H256.821V344.755H253.301V351.336C253.301 352.091 253.454 352.605 253.759 352.879C254.065 353.136 254.603 353.264 255.374 353.264H256.628V355H254.796ZM260.623 340.392C260.221 340.392 259.884 340.263 259.61 340.006C259.353 339.733 259.225 339.395 259.225 338.993C259.225 338.608 259.353 338.286 259.61 338.029C259.884 337.772 260.221 337.644 260.623 337.644C261.009 337.644 261.338 337.772 261.611 338.029C261.884 338.286 262.021 338.608 262.021 338.993C262.021 339.395 261.884 339.733 261.611 340.006C261.338 340.263 261.009 340.392 260.623 340.392ZM259.61 355V343.043H261.635V355H259.61ZM265.161 355V343.043H266.993L267.114 345.189C267.499 344.433 268.054 343.839 268.777 343.405C269.5 342.971 270.32 342.754 271.236 342.754C272.65 342.754 273.775 343.188 274.611 344.056C275.462 344.908 275.888 346.225 275.888 348.009V355H273.863V348.226C273.863 345.735 272.835 344.49 270.778 344.49C269.749 344.49 268.889 344.867 268.198 345.623C267.523 346.362 267.186 347.423 267.186 348.805V355H265.161ZM283.681 351.239C283.006 351.239 282.387 351.151 281.825 350.974L280.62 352.107C280.796 352.236 281.013 352.348 281.27 352.445C281.544 352.525 281.929 352.605 282.428 352.686C282.926 352.75 283.625 352.822 284.525 352.903C286.132 353.015 287.281 353.385 287.972 354.012C288.663 354.638 289.009 355.458 289.009 356.47C289.009 357.162 288.816 357.82 288.43 358.447C288.06 359.074 287.482 359.588 286.694 359.99C285.923 360.392 284.927 360.593 283.705 360.593C282.628 360.593 281.672 360.448 280.836 360.159C280.001 359.886 279.35 359.46 278.884 358.881C278.418 358.319 278.185 357.603 278.185 356.736C278.185 356.286 278.305 355.796 278.546 355.265C278.787 354.751 279.237 354.261 279.896 353.795C279.543 353.65 279.237 353.497 278.98 353.337C278.739 353.16 278.514 352.967 278.305 352.758V352.204L280.354 350.179C279.406 349.375 278.932 348.315 278.932 346.997C278.932 346.209 279.117 345.494 279.487 344.851C279.856 344.208 280.395 343.702 281.102 343.333C281.809 342.947 282.669 342.754 283.681 342.754C284.372 342.754 284.999 342.85 285.561 343.043H289.973V344.562L287.731 344.658C288.197 345.333 288.43 346.113 288.43 346.997C288.43 347.784 288.237 348.499 287.851 349.142C287.482 349.785 286.943 350.299 286.236 350.685C285.545 351.055 284.693 351.239 283.681 351.239ZM283.681 349.576C284.533 349.576 285.208 349.359 285.706 348.925C286.22 348.475 286.477 347.832 286.477 346.997C286.477 346.177 286.22 345.55 285.706 345.116C285.208 344.666 284.533 344.441 283.681 344.441C282.813 344.441 282.122 344.666 281.608 345.116C281.11 345.55 280.861 346.177 280.861 346.997C280.861 347.832 281.11 348.475 281.608 348.925C282.122 349.359 282.813 349.576 283.681 349.576ZM280.162 356.543C280.162 357.346 280.499 357.941 281.174 358.327C281.849 358.728 282.693 358.929 283.705 358.929C284.702 358.929 285.497 358.712 286.092 358.278C286.702 357.845 287.008 357.266 287.008 356.543C287.008 356.029 286.799 355.579 286.381 355.193C285.963 354.823 285.192 354.606 284.067 354.542C283.183 354.478 282.419 354.397 281.777 354.301C281.118 354.654 280.684 355.032 280.475 355.434C280.266 355.852 280.162 356.221 280.162 356.543Z" fill="black"/>
<path d="M152.895 331.432C150.399 331.432 148.239 330.892 146.415 329.812C144.615 328.708 143.223 327.184 142.239 325.24C141.255 323.272 140.763 321.004 140.763 318.436C140.763 315.844 141.255 313.576 142.239 311.632C143.223 309.664 144.615 308.128 146.415 307.024C148.239 305.92 150.399 305.368 152.895 305.368C155.847 305.368 158.259 306.088 160.131 307.528C162.003 308.968 163.191 310.984 163.695 313.576H159.447C159.111 312.112 158.391 310.948 157.287 310.084C156.183 309.22 154.707 308.788 152.859 308.788C150.339 308.788 148.347 309.652 146.883 311.38C145.419 313.084 144.687 315.436 144.687 318.436C144.687 321.412 145.419 323.752 146.883 325.456C148.347 327.16 150.339 328.012 152.859 328.012C154.707 328.012 156.183 327.604 157.287 326.788C158.391 325.972 159.111 324.856 159.447 323.44H163.695C163.191 325.936 162.003 327.892 160.131 329.308C158.259 330.724 155.847 331.432 152.895 331.432ZM167.746 331V305.08H171.562V331H167.746ZM184.746 331.432C183.042 331.432 181.506 331.048 180.138 330.28C178.794 329.488 177.726 328.396 176.934 327.004C176.142 325.588 175.746 323.944 175.746 322.072C175.746 320.2 176.142 318.568 176.934 317.176C177.75 315.76 178.842 314.668 180.21 313.9C181.578 313.108 183.102 312.712 184.782 312.712C186.486 312.712 188.01 313.108 189.354 313.9C190.722 314.668 191.802 315.76 192.594 317.176C193.41 318.568 193.818 320.2 193.818 322.072C193.818 323.944 193.41 325.588 192.594 327.004C191.802 328.396 190.722 329.488 189.354 330.28C187.986 331.048 186.45 331.432 184.746 331.432ZM184.746 328.156C185.658 328.156 186.498 327.928 187.266 327.472C188.058 327.016 188.694 326.344 189.174 325.456C189.654 324.544 189.894 323.416 189.894 322.072C189.894 320.728 189.654 319.612 189.174 318.724C188.718 317.812 188.094 317.128 187.302 316.672C186.534 316.216 185.694 315.988 184.782 315.988C183.87 315.988 183.018 316.216 182.226 316.672C181.458 317.128 180.834 317.812 180.354 318.724C179.874 319.612 179.634 320.728 179.634 322.072C179.634 323.416 179.874 324.544 180.354 325.456C180.834 326.344 181.458 327.016 182.226 327.472C182.994 327.928 183.834 328.156 184.746 328.156ZM204.533 331.432C202.373 331.432 200.669 330.76 199.421 329.416C198.197 328.072 197.585 326.068 197.585 323.404V313.144H201.401V323.008C201.401 326.464 202.817 328.192 205.649 328.192C207.065 328.192 208.229 327.688 209.141 326.68C210.053 325.672 210.509 324.232 210.509 322.36V313.144H214.325V331H210.941L210.653 327.868C210.101 328.972 209.285 329.848 208.205 330.496C207.149 331.12 205.925 331.432 204.533 331.432ZM227.316 331.432C225.588 331.432 224.064 331.024 222.744 330.208C221.424 329.392 220.392 328.276 219.648 326.86C218.904 325.444 218.532 323.836 218.532 322.036C218.532 320.236 218.904 318.64 219.648 317.248C220.392 315.832 221.424 314.728 222.744 313.936C224.088 313.12 225.624 312.712 227.352 312.712C228.768 312.712 230.004 312.988 231.06 313.54C232.14 314.092 232.98 314.872 233.58 315.88V305.08H237.396V331H233.976L233.58 328.228C233.004 329.068 232.212 329.812 231.204 330.46C230.196 331.108 228.9 331.432 227.316 331.432ZM228 328.12C229.632 328.12 230.964 327.556 231.996 326.428C233.052 325.3 233.58 323.848 233.58 322.072C233.58 320.272 233.052 318.82 231.996 317.716C230.964 316.588 229.632 316.024 228 316.024C226.368 316.024 225.024 316.588 223.968 317.716C222.912 318.82 222.384 320.272 222.384 322.072C222.384 323.248 222.624 324.292 223.104 325.204C223.584 326.116 224.244 326.836 225.084 327.364C225.948 327.868 226.92 328.12 228 328.12ZM251.421 331V305.8H260.925C263.541 305.8 265.521 306.412 266.865 307.636C268.209 308.86 268.881 310.396 268.881 312.244C268.881 313.852 268.449 315.136 267.585 316.096C266.721 317.032 265.677 317.668 264.453 318.004C265.413 318.196 266.265 318.58 267.009 319.156C267.777 319.732 268.377 320.452 268.809 321.316C269.241 322.18 269.457 323.116 269.457 324.124C269.457 325.42 269.133 326.596 268.485 327.652C267.861 328.684 266.937 329.5 265.713 330.1C264.489 330.7 262.989 331 261.213 331H251.421ZM255.237 316.6H260.457C261.921 316.6 263.037 316.264 263.805 315.592C264.573 314.896 264.957 313.948 264.957 312.748C264.957 311.572 264.573 310.636 263.805 309.94C263.061 309.244 261.921 308.896 260.385 308.896H255.237V316.6ZM255.237 327.868H260.709C262.245 327.868 263.433 327.508 264.273 326.788C265.137 326.068 265.569 325.06 265.569 323.764C265.569 322.468 265.125 321.448 264.237 320.704C263.349 319.936 262.149 319.552 260.637 319.552H255.237V327.868ZM281.848 331.432C280.096 331.432 278.536 331.048 277.168 330.28C275.824 329.488 274.768 328.396 274 327.004C273.232 325.612 272.848 323.992 272.848 322.144C272.848 320.272 273.22 318.628 273.964 317.212C274.732 315.796 275.788 314.692 277.132 313.9C278.5 313.108 280.084 312.712 281.884 312.712C283.636 312.712 285.16 313.108 286.456 313.9C287.752 314.668 288.76 315.7 289.48 316.996C290.2 318.292 290.56 319.72 290.56 321.28C290.56 321.52 290.548 321.784 290.524 322.072C290.524 322.336 290.512 322.636 290.488 322.972H276.592C276.712 324.7 277.276 326.02 278.284 326.932C279.316 327.82 280.504 328.264 281.848 328.264C282.928 328.264 283.828 328.024 284.548 327.544C285.292 327.04 285.844 326.368 286.204 325.528H290.02C289.54 327.208 288.58 328.612 287.14 329.74C285.724 330.868 283.96 331.432 281.848 331.432ZM281.848 315.844C280.576 315.844 279.448 316.228 278.464 316.996C277.48 317.74 276.88 318.868 276.664 320.38H286.744C286.672 318.988 286.18 317.884 285.268 317.068C284.356 316.252 283.216 315.844 281.848 315.844ZM300.567 331.432C299.055 331.432 297.807 331.18 296.823 330.676C295.839 330.172 295.107 329.512 294.627 328.696C294.147 327.856 293.907 326.944 293.907 325.96C293.907 324.232 294.579 322.864 295.923 321.856C297.267 320.848 299.187 320.344 301.683 320.344H306.363V320.02C306.363 318.628 305.979 317.584 305.211 316.888C304.467 316.192 303.495 315.844 302.295 315.844C301.239 315.844 300.315 316.108 299.523 316.636C298.755 317.14 298.287 317.896 298.119 318.904H294.303C294.423 317.608 294.855 316.504 295.599 315.592C296.367 314.656 297.327 313.948 298.479 313.468C299.655 312.964 300.939 312.712 302.331 312.712C304.827 312.712 306.759 313.372 308.127 314.692C309.495 315.988 310.179 317.764 310.179 320.02V331H306.867L306.543 327.94C306.039 328.924 305.307 329.752 304.347 330.424C303.387 331.096 302.127 331.432 300.567 331.432ZM301.323 328.336C302.355 328.336 303.219 328.096 303.915 327.616C304.635 327.112 305.187 326.452 305.571 325.636C305.979 324.82 306.231 323.92 306.327 322.936H302.079C300.567 322.936 299.487 323.2 298.839 323.728C298.215 324.256 297.903 324.916 297.903 325.708C297.903 326.524 298.203 327.172 298.803 327.652C299.427 328.108 300.267 328.336 301.323 328.336ZM314.629 331V313.144H318.049L318.373 316.528C318.997 315.352 319.861 314.428 320.965 313.756C322.093 313.06 323.449 312.712 325.033 312.712V316.708H323.989C322.933 316.708 321.985 316.888 321.145 317.248C320.329 317.584 319.669 318.172 319.165 319.012C318.685 319.828 318.445 320.968 318.445 322.432V331H314.629Z" fill="black"/>
</svg>
